<svg width="428" height="666" viewBox="0 0 428 666" fill="none" xmlns="http://www.w3.org/2000/svg">
<g clip-path="url(#clip0_25_955)">
<rect width="428" height="666" fill="#F8F9FC"/>
<path d="M434.348 209.682L430.368 206.525L426.344 209.682L422.365 206.525L418.385 209.682L414.361 206.525L410.382 209.682L406 206.246L406.76 205.855L410.382 208.704L414.361 205.548L418.385 208.704L422.365 205.548L426.344 208.704L430.368 205.548L434.348 208.704L438.327 205.548L442.351 208.704L446.331 205.548L450.712 209.011L449.952 209.374L446.331 206.525L442.351 209.682L438.327 206.525L434.348 209.682Z" fill="#7FE8BF" stroke="#7FE8BF" stroke-width="0.447091"/>
<path d="M298 641C295.792 641 294 639.208 294 637C294 634.792 295.792 633 298 633C300.208 633 302 634.792 302 637C302 639.208 300.208 641 298 641ZM298 634.328C296.528 634.328 295.328 635.528 295.328 637C295.328 638.472 296.528 639.672 298 639.672C299.472 639.672 300.672 638.472 300.672 637C300.672 635.528 299.472 634.328 298 634.328Z" fill="#C8A1FD" stroke="#C8A1FD" stroke-width="0.0526028"/>
<path d="M434.5 414.301C422.08 414.301 412 403.705 412 390.65C412 377.595 422.08 367 434.5 367C446.92 367 457 377.595 457 390.65C457 403.705 446.92 414.301 434.5 414.301ZM434.5 374.852C426.22 374.852 419.47 381.947 419.47 390.65C419.47 399.354 426.22 406.449 434.5 406.449C442.78 406.449 449.53 399.354 449.53 390.65C449.53 381.947 442.78 374.852 434.5 374.852Z" fill="#EFE8FF" stroke="#EFE8FF" stroke-width="0.449315"/>
</g>
<defs>
<clipPath id="clip0_25_955">
<rect width="428" height="666" fill="white"/>
</clipPath>
</defs>
</svg>
